<?xml version="1.0" encoding="UTF-8"?>
<svg id="_레이어_2" data-name="레이어 2" xmlns="http://www.w3.org/2000/svg" viewBox="0 0 19.54 31.48">
  <defs>
    <style>
      .cls-1 {
        fill: #fdfefe;
      }

      .cls-2 {
        fill: #b8c0b9;
      }
    </style>
  </defs>
  <g id="_레이어_1-2" data-name="레이어 1">
    <g>
      <path class="cls-2" d="M9.77,29.69c-4.5,0-8.17-6.26-8.17-13.95S5.27,1.79,9.77,1.79s8.17,6.26,8.17,13.95-3.66,13.95-8.17,13.95ZM9.77,2.19c-4.28,0-7.76,6.08-7.76,13.55s3.48,13.55,7.76,13.55,7.77-6.08,7.77-13.55S14.05,2.19,9.77,2.19Z"/>
      <g>
        <path class="cls-1" d="M9.77,0C4.38,0,0,7.06,0,15.74s4.38,15.74,9.77,15.74,9.77-7.06,9.77-15.74S15.16,0,9.77,0ZM9.77,30.88C4.71,30.88.6,24.09.6,15.74S4.71.6,9.77.6s9.17,6.79,9.17,15.14-4.11,15.14-9.17,15.14Z"/>
        <path class="cls-1" d="M13.28,18.55h-3.37v-2.38c.18-.11.35-.24.47-.39.22-.27.32-.6.32-1,0-.35-.06-.66-.19-.91-.13-.25-.32-.47-.59-.66-.26-.19-.6-.36-1.03-.53l-1.32-.5c-.48-.19-.84-.41-1.07-.66-.23-.24-.35-.54-.35-.9,0-.28.08-.53.23-.75.15-.22.38-.39.67-.52.29-.12.65-.19,1.06-.19.44,0,.8.14,1.09.4.29.27.52.59.66.94.15.36.24.69.27.99v.04h.14v-.03c.14-.41.15-.8.04-1.16-.11-.36-.35-.68-.72-.94-.37-.26-.87-.39-1.49-.39-.45,0-.86.07-1.23.2-.37.13-.67.34-.9.62-.23.28-.34.62-.34,1.02,0,.3.05.57.15.79.1.22.26.43.49.61.22.18.53.36.92.52l1.37.54.19.07c.3.14.57.28.78.44.21.15.37.33.48.52.11.19.16.42.16.67,0,.28-.07.53-.22.74-.01.02-.04.04-.06.06v-.58h-.69v1.04c-.29.11-.65.16-1.07.16-.46,0-.86-.11-1.19-.33-.33-.22-.59-.5-.77-.83-.19-.33-.32-.67-.39-1.04-.02-.04-.02-.07-.03-.1,0-.03,0-.06,0-.1v-.05h-.14v.04c-.14.47-.13.9,0,1.28.14.38.42.7.84.93.42.23.97.35,1.65.35.41,0,.77-.05,1.09-.14v5.9h.69v-3.65h3.37v3.65h.68v-7.11h-.68v3.32Z"/>
        <path class="cls-1" d="M9.8,26.01c-.14,0-.25.11-.25.25s.11.25.25.25.25-.11.25-.25-.11-.25-.25-.25Z"/>
        <path class="cls-1" d="M9.8,5.26c.14,0,.25-.11.25-.25s-.11-.25-.25-.25-.25.11-.25.25.11.25.25.25Z"/>
      </g>
    </g>
  </g>
</svg>